<?xml version="1.0" encoding="UTF-8"?>
<svg viewBox="0 0 24 24" xmlns="http://www.w3.org/2000/svg" fill="#346ddb">
    <path d="m20.5 9.5c-1.528 0-2.319.642-2.469 2h-2.062c-.083-1.333-.504-2.263-1.304-2.823l1.092-1.747c.227.041.469.07.743.07 1.706 0 2.5-.794 2.5-2.5s-.794-2.5-2.5-2.5-2.5.794-2.5 2.5c0 .979.271 1.649.817 2.049l-1.051 1.681c-.5-.154-1.086-.23-1.767-.23s-1.267.077-1.767.231l-1.05-1.681c.546-.401.817-1.07.817-2.049 0-1.706-.794-2.5-2.5-2.5s-2.5.794-2.5 2.5.794 2.5 2.5 2.5c.274 0 .515-.028.742-.069l1.092 1.747c-.8.56-1.22 1.489-1.304 2.822h-2.062c-.15-1.358-.941-2-2.469-2-1.706 0-2.5.794-2.5 2.5s.794 2.5 2.5 2.5c1.528 0 2.319-.642 2.469-2h2.062c.083 1.333.504 2.263 1.304 2.823l-1.092 1.747c-.227-.041-.469-.069-.742-.069-1.706 0-2.5.794-2.5 2.5s.794 2.5 2.5 2.5 2.5-.794 2.5-2.5c0-.98-.271-1.649-.817-2.05l1.051-1.681c.5.154 1.086.23 1.767.23s1.267-.077 1.767-.23l1.051 1.681c-.546.401-.817 1.07-.817 2.049 0 1.706.794 2.5 2.5 2.5s2.5-.794 2.5-2.5-.794-2.5-2.5-2.5c-.273 0-.515.028-.742.069l-1.092-1.747c.8-.56 1.221-1.489 1.304-2.823h2.062c.15 1.358.941 2 2.469 2 1.706 0 2.5-.794 2.5-2.5s-.794-2.5-2.5-2.5zm-4-6.5c1.149 0 1.5.351 1.5 1.5s-.351 1.5-1.5 1.5-1.5-.351-1.5-1.5.351-1.5 1.5-1.5zm-10.5 1.5c0-1.149.351-1.5 1.5-1.5s1.5.351 1.5 1.5-.351 1.5-1.5 1.5-1.5-.351-1.5-1.5zm1.5 16.5c-1.149 0-1.5-.351-1.5-1.5s.351-1.5 1.5-1.5 1.5.351 1.5 1.5-.351 1.5-1.5 1.5zm10.5-1.5c0 1.149-.351 1.5-1.5 1.5s-1.5-.351-1.5-1.5.351-1.5 1.5-1.5 1.5.351 1.5 1.5zm-14.5-6c-1.149 0-1.5-.351-1.5-1.5s.351-1.5 1.5-1.5 1.5.351 1.5 1.5-.351 1.5-1.5 1.5zm8.5 1.5c-2.215 0-3-.785-3-3s.785-3 3-3 3 .785 3 3-.785 3-3 3zm8.5-1.5c-1.149 0-1.5-.351-1.5-1.5s.351-1.5 1.5-1.5 1.5.351 1.5 1.5-.351 1.5-1.5 1.5z"/>
</svg>
