<?xml version="1.0" encoding="UTF-8"?>
<svg viewBox="0 0 24 24" xmlns="http://www.w3.org/2000/svg" fill="#346ddb">
    <path d="m24 3v3.988c0 1.103-.897 2-2 2l-3.997.012-.006-2 2.664-.008c-1.766-3.075-5.024-4.992-8.661-4.992-5.514 0-10 4.486-10 10h-2c0-6.617 5.383-12 12-12 4.108 0 7.81 2.042 9.998 5.359l.002-2.359zm-12 19c-3.582 0-6.856-1.937-8.633-4.992l2.636-.008-.006-2-3.997.012c-1.103 0-2 .897-2 2v3.988h2l.002-2.372c2.2 3.313 5.942 5.372 9.998 5.372 6.617 0 12-5.383 12-12h-2c0 5.514-4.486 10-10 10zm-6-10c0-3.314 2.686-6 6-6s6 2.686 6 6-2.686 6-6 6-6-2.686-6-6zm1.744.157 2.182 2.268c.766.765 2.079.763 2.823.019l.004-.004 3.607-3.696-1.398-1.43-3.614 3.703-2.216-2.301-1.387 1.441z"/>
</svg>
